<svg width="210" height="32" viewBox="0 0 210 32 " fill="#002959" xmlns="http://www.w3.org/2000/svg">
<g clip-path="url(#clip0_53_156)">
<path d="M22.2848 31H20.9958L18.9255 28.1289C18.4177 28.5846 17.8773 29.0143 17.3044 29.418C16.7445 29.8086 16.152 30.1536 15.527 30.4531C14.902 30.7396 14.2575 30.9674 13.5934 31.1367C12.9424 31.306 12.2783 31.3906 11.6012 31.3906C10.1299 31.3906 8.74319 31.1432 7.4411 30.6484C6.15204 30.1536 5.01923 29.4375 4.04267 28.5C3.07912 27.5495 2.31741 26.3906 1.75751 25.0234C1.19761 23.6562 0.917664 22.1003 0.917664 20.3555C0.917664 18.7279 1.19761 17.237 1.75751 15.8828C2.31741 14.5156 3.07912 13.3438 4.04267 12.3672C5.01923 11.3906 6.15204 10.6354 7.4411 10.1016C8.74319 9.55469 10.1299 9.28125 11.6012 9.28125C12.2783 9.28125 12.9489 9.36589 13.613 9.53516C14.277 9.70443 14.9216 9.9388 15.5466 10.2383C16.1716 10.5378 16.764 10.8893 17.3239 11.293C17.8968 11.6966 18.4307 12.1328 18.9255 12.6016L20.9958 10.1211H22.2848V31ZM16.9137 20.3555C16.9137 19.6263 16.7705 18.9232 16.4841 18.2461C16.2106 17.556 15.833 16.9505 15.3512 16.4297C14.8695 15.8958 14.3031 15.4727 13.652 15.1602C13.014 14.8346 12.3304 14.6719 11.6012 14.6719C10.8721 14.6719 10.182 14.7956 9.53095 15.043C8.89293 15.2904 8.33303 15.6549 7.85126 16.1367C7.38251 16.6185 7.01142 17.2174 6.73798 17.9336C6.46454 18.6367 6.32782 19.444 6.32782 20.3555C6.32782 21.2669 6.46454 22.0807 6.73798 22.7969C7.01142 23.5 7.38251 24.0924 7.85126 24.5742C8.33303 25.056 8.89293 25.4206 9.53095 25.668C10.182 25.9154 10.8721 26.0391 11.6012 26.0391C12.3304 26.0391 13.014 25.8828 13.652 25.5703C14.3031 25.2448 14.8695 24.8216 15.3512 24.3008C15.833 23.7669 16.2106 23.1615 16.4841 22.4844C16.7705 21.7943 16.9137 21.0846 16.9137 20.3555ZM37.8913 31H25.7038V25.6875H37.8913C38.2558 25.6875 38.5683 25.5573 38.8288 25.2969C39.0892 25.0365 39.2194 24.724 39.2194 24.3594C39.2194 23.9818 39.0892 23.7344 38.8288 23.6172C38.5683 23.5 38.2558 23.4414 37.8913 23.4414H32.3444C31.4199 23.4414 30.554 23.2656 29.7467 22.9141C28.9394 22.5625 28.2363 22.0872 27.6373 21.4883C27.0384 20.8763 26.5631 20.1667 26.2116 19.3594C25.873 18.5521 25.7038 17.6862 25.7038 16.7617C25.7038 15.8372 25.873 14.9714 26.2116 14.1641C26.5631 13.3568 27.0384 12.6536 27.6373 12.0547C28.2363 11.4557 28.9394 10.987 29.7467 10.6484C30.554 10.2969 31.4199 10.1211 32.3444 10.1211H43.1452V15.4336H32.3444C31.9798 15.4336 31.6673 15.5638 31.4069 15.8242C31.1465 16.0846 31.0163 16.3971 31.0163 16.7617C31.0163 17.1393 31.1465 17.4648 31.4069 17.7383C31.6673 17.9987 31.9798 18.1289 32.3444 18.1289H37.8913C38.8027 18.1289 39.6621 18.2852 40.4694 18.5977C41.2767 18.8971 41.9798 19.3203 42.5788 19.8672C43.1777 20.4141 43.653 21.0716 44.0045 21.8398C44.3561 22.6081 44.5319 23.4479 44.5319 24.3594C44.5319 25.2839 44.3561 26.1497 44.0045 26.957C43.653 27.7513 43.1777 28.4544 42.5788 29.0664C41.9798 29.6654 41.2767 30.1406 40.4694 30.4922C39.6621 30.8307 38.8027 31 37.8913 31ZM57.9117 31C56.6227 31 55.4117 30.7591 54.2789 30.2773C53.1461 29.7826 52.15 29.112 51.2906 28.2656C50.4443 27.4062 49.7737 26.4102 49.2789 25.2773C48.7971 24.1445 48.5563 22.9336 48.5563 21.6445V15.4336H45.9586V10.1211H48.5563V1.76172H53.8688V10.1211H61.9547V15.4336H53.8688V21.6445C53.8688 22.2044 53.9729 22.7318 54.1813 23.2266C54.3896 23.7083 54.676 24.1315 55.0406 24.4961C55.4052 24.8607 55.8349 25.1536 56.3297 25.375C56.8245 25.5833 57.3518 25.6875 57.9117 25.6875H61.9547V31H57.9117ZM70.3345 31H65.0025V10.082H66.2916L68.0494 12.5625C68.9088 11.7812 69.8853 11.1823 70.9791 10.7656C72.0728 10.3359 73.2056 10.1211 74.3775 10.1211H79.0845V15.4336H74.3775C73.8176 15.4336 73.2903 15.5378 72.7955 15.7461C72.3007 15.9544 71.871 16.2409 71.5064 16.6055C71.1418 16.9701 70.8554 17.3997 70.647 17.8945C70.4387 18.3893 70.3345 18.9167 70.3345 19.4766V31ZM101.429 20.3555C101.429 21.918 101.149 23.3763 100.589 24.7305C100.029 26.0716 99.2678 27.237 98.3042 28.2266C97.3407 29.2031 96.2079 29.9779 94.9058 30.5508C93.6167 31.1107 92.23 31.3906 90.7456 31.3906C89.2743 31.3906 87.8876 31.1107 86.5855 30.5508C85.2964 29.9779 84.1636 29.2031 83.187 28.2266C82.2235 27.237 81.4618 26.0716 80.9019 24.7305C80.342 23.3763 80.062 21.918 80.062 20.3555C80.062 18.7669 80.342 17.2956 80.9019 15.9414C81.4618 14.5872 82.2235 13.4219 83.187 12.4453C84.1636 11.4557 85.2964 10.681 86.5855 10.1211C87.8876 9.5612 89.2743 9.28125 90.7456 9.28125C92.23 9.28125 93.6167 9.54818 94.9058 10.082C96.2079 10.6029 97.3407 11.3516 98.3042 12.3281C99.2678 13.2917 100.029 14.457 100.589 15.8242C101.149 17.1784 101.429 18.6888 101.429 20.3555ZM96.0581 20.3555C96.0581 19.4961 95.9149 18.7214 95.6284 18.0312C95.355 17.3281 94.9774 16.7292 94.4956 16.2344C94.0139 15.7266 93.4475 15.3424 92.7964 15.082C92.1584 14.8086 91.4748 14.6719 90.7456 14.6719C90.0165 14.6719 89.3264 14.8086 88.6753 15.082C88.0373 15.3424 87.4774 15.7266 86.9956 16.2344C86.5269 16.7292 86.1558 17.3281 85.8823 18.0312C85.6089 18.7214 85.4722 19.4961 85.4722 20.3555C85.4722 21.1628 85.6089 21.9115 85.8823 22.6016C86.1558 23.2917 86.5269 23.8906 86.9956 24.3984C87.4774 24.9062 88.0373 25.3099 88.6753 25.6094C89.3264 25.8958 90.0165 26.0391 90.7456 26.0391C91.4748 26.0391 92.1584 25.9023 92.7964 25.6289C93.4475 25.3555 94.0139 24.9714 94.4956 24.4766C94.9774 23.9818 95.355 23.3828 95.6284 22.6797C95.9149 21.9766 96.0581 21.2018 96.0581 20.3555ZM131.02 31H125.707V17.7188C125.707 17.3542 125.636 17.0091 125.493 16.6836C125.362 16.3581 125.174 16.0716 124.926 15.8242C124.679 15.5768 124.392 15.388 124.067 15.2578C123.741 15.1146 123.396 15.043 123.032 15.043C122.667 15.043 122.322 15.1146 121.997 15.2578C121.684 15.388 121.404 15.5768 121.157 15.8242C120.922 16.0716 120.734 16.3581 120.59 16.6836C120.46 17.0091 120.395 17.3542 120.395 17.7188V31H115.063V17.7188C115.063 17.3542 114.991 17.0091 114.848 16.6836C114.718 16.3581 114.529 16.0716 114.282 15.8242C114.034 15.5768 113.748 15.388 113.422 15.2578C113.097 15.1146 112.752 15.043 112.387 15.043C112.023 15.043 111.678 15.1146 111.352 15.2578C111.04 15.388 110.76 15.5768 110.512 15.8242C110.278 16.0716 110.089 16.3581 109.946 16.6836C109.816 17.0091 109.75 17.3542 109.75 17.7188V31H104.418V10.082H105.707L107.153 11.6836C107.895 11.0586 108.709 10.5768 109.594 10.2383C110.493 9.88672 111.424 9.71094 112.387 9.71094C113.364 9.71094 114.314 9.89323 115.239 10.2578C116.176 10.6224 116.997 11.2539 117.7 12.1523C118.025 11.7096 118.396 11.332 118.813 11.0195C119.23 10.707 119.666 10.4531 120.122 10.2578C120.59 10.0625 121.072 9.92578 121.567 9.84766C122.062 9.75651 122.55 9.71094 123.032 9.71094C124.138 9.71094 125.174 9.91927 126.137 10.3359C127.114 10.7526 127.96 11.3255 128.676 12.0547C129.405 12.7708 129.978 13.6172 130.395 14.5938C130.812 15.5703 131.02 16.612 131.02 17.7188V31ZM143.287 25.8828C143.495 25.9479 143.703 25.9935 143.912 26.0195C144.12 26.0326 144.328 26.0391 144.537 26.0391C145.057 26.0391 145.559 25.9674 146.04 25.8242C146.522 25.681 146.971 25.4792 147.388 25.2188C147.818 24.9453 148.195 24.6198 148.521 24.2422C148.859 23.8516 149.133 23.4219 149.341 22.9531L153.247 26.8789C152.753 27.582 152.18 28.2135 151.529 28.7734C150.891 29.3333 150.194 29.8086 149.439 30.1992C148.697 30.5898 147.909 30.8828 147.076 31.0781C146.255 31.2865 145.409 31.3906 144.537 31.3906C143.065 31.3906 141.678 31.1172 140.376 30.5703C139.087 30.0234 137.955 29.2617 136.978 28.2852C136.014 27.3086 135.253 26.1497 134.693 24.8086C134.133 23.4544 133.853 21.9701 133.853 20.3555C133.853 18.7018 134.133 17.1914 134.693 15.8242C135.253 14.457 136.014 13.2917 136.978 12.3281C137.955 11.3646 139.087 10.6159 140.376 10.082C141.678 9.54818 143.065 9.28125 144.537 9.28125C145.409 9.28125 146.262 9.38542 147.095 9.59375C147.928 9.80208 148.716 10.1016 149.458 10.4922C150.214 10.8828 150.917 11.3646 151.568 11.9375C152.219 12.4974 152.792 13.1289 153.287 13.832L143.287 25.8828ZM146.021 14.8867C145.774 14.7956 145.526 14.737 145.279 14.7109C145.044 14.6849 144.797 14.6719 144.537 14.6719C143.807 14.6719 143.117 14.8086 142.466 15.082C141.828 15.3424 141.268 15.7201 140.787 16.2148C140.318 16.7096 139.947 17.3086 139.673 18.0117C139.4 18.7018 139.263 19.4831 139.263 20.3555C139.263 20.5508 139.27 20.7721 139.283 21.0195C139.309 21.2669 139.341 21.5208 139.38 21.7812C139.432 22.0286 139.491 22.2695 139.556 22.5039C139.621 22.7383 139.706 22.9466 139.81 23.1289L146.021 14.8867ZM176.08 31H174.791L172.721 28.1289C172.213 28.5846 171.673 29.0143 171.1 29.418C170.54 29.8086 169.948 30.1536 169.323 30.4531C168.698 30.7396 168.053 30.9674 167.389 31.1367C166.738 31.306 166.074 31.3906 165.397 31.3906C163.926 31.3906 162.539 31.1172 161.237 30.5703C159.948 30.0104 158.815 29.2422 157.838 28.2656C156.875 27.276 156.113 26.1107 155.553 24.7695C154.993 23.4154 154.713 21.944 154.713 20.3555C154.713 18.7799 154.993 17.3151 155.553 15.9609C156.113 14.6068 156.875 13.4349 157.838 12.4453C158.815 11.4557 159.948 10.681 161.237 10.1211C162.539 9.5612 163.926 9.28125 165.397 9.28125C165.866 9.28125 166.347 9.32031 166.842 9.39844C167.35 9.47656 167.838 9.60677 168.307 9.78906C168.789 9.95833 169.238 10.1862 169.655 10.4727C170.071 10.7591 170.423 11.1107 170.709 11.5273V1.76172H176.08V31ZM170.709 20.3555C170.709 19.6263 170.566 18.9232 170.28 18.2461C170.006 17.556 169.629 16.9505 169.147 16.4297C168.665 15.8958 168.099 15.4727 167.448 15.1602C166.81 14.8346 166.126 14.6719 165.397 14.6719C164.668 14.6719 163.978 14.8021 163.327 15.0625C162.689 15.3229 162.129 15.7005 161.647 16.1953C161.178 16.6771 160.807 17.2695 160.534 17.9727C160.26 18.6758 160.123 19.4701 160.123 20.3555C160.123 21.1237 160.26 21.8529 160.534 22.543C160.807 23.2331 161.178 23.8385 161.647 24.3594C162.129 24.8802 162.689 25.2904 163.327 25.5898C163.978 25.8893 164.668 26.0391 165.397 26.0391C166.126 26.0391 166.81 25.8828 167.448 25.5703C168.099 25.2448 168.665 24.8216 169.147 24.3008C169.629 23.7669 170.006 23.1615 170.28 22.4844C170.566 21.7943 170.709 21.0846 170.709 20.3555ZM186.492 4.39844C186.492 4.89323 186.394 5.35547 186.199 5.78516C186.016 6.21484 185.762 6.59245 185.437 6.91797C185.111 7.23047 184.727 7.48438 184.285 7.67969C183.855 7.86198 183.393 7.95312 182.898 7.95312C182.403 7.95312 181.934 7.86198 181.492 7.67969C181.062 7.48438 180.684 7.23047 180.359 6.91797C180.046 6.59245 179.792 6.21484 179.597 5.78516C179.415 5.35547 179.324 4.89323 179.324 4.39844C179.324 3.91667 179.415 3.46094 179.597 3.03125C179.792 2.58854 180.046 2.21094 180.359 1.89844C180.684 1.57292 181.062 1.31901 181.492 1.13672C181.934 0.941406 182.403 0.84375 182.898 0.84375C183.393 0.84375 183.855 0.941406 184.285 1.13672C184.727 1.31901 185.111 1.57292 185.437 1.89844C185.762 2.21094 186.016 2.58854 186.199 3.03125C186.394 3.46094 186.492 3.91667 186.492 4.39844ZM185.574 31H180.203V10.082H185.574V31ZM209.95 31H208.66L206.59 28.1289C206.082 28.5846 205.542 29.0143 204.969 29.418C204.409 29.8086 203.817 30.1536 203.192 30.4531C202.567 30.7396 201.922 30.9674 201.258 31.1367C200.607 31.306 199.943 31.3906 199.266 31.3906C197.795 31.3906 196.408 31.1432 195.106 30.6484C193.817 30.1536 192.684 29.4375 191.707 28.5C190.744 27.5495 189.982 26.3906 189.422 25.0234C188.862 23.6562 188.582 22.1003 188.582 20.3555C188.582 18.7279 188.862 17.237 189.422 15.8828C189.982 14.5156 190.744 13.3438 191.707 12.3672C192.684 11.3906 193.817 10.6354 195.106 10.1016C196.408 9.55469 197.795 9.28125 199.266 9.28125C199.943 9.28125 200.614 9.36589 201.278 9.53516C201.942 9.70443 202.586 9.9388 203.211 10.2383C203.836 10.5378 204.429 10.8893 204.989 11.293C205.562 11.6966 206.095 12.1328 206.59 12.6016L208.66 10.1211H209.95V31ZM204.578 20.3555C204.578 19.6263 204.435 18.9232 204.149 18.2461C203.875 17.556 203.498 16.9505 203.016 16.4297C202.534 15.8958 201.968 15.4727 201.317 15.1602C200.679 14.8346 199.995 14.6719 199.266 14.6719C198.537 14.6719 197.847 14.7956 197.196 15.043C196.558 15.2904 195.998 15.6549 195.516 16.1367C195.047 16.6185 194.676 17.2174 194.403 17.9336C194.129 18.6367 193.992 19.444 193.992 20.3555C193.992 21.2669 194.129 22.0807 194.403 22.7969C194.676 23.5 195.047 24.0924 195.516 24.5742C195.998 25.056 196.558 25.4206 197.196 25.668C197.847 25.9154 198.537 26.0391 199.266 26.0391C199.995 26.0391 200.679 25.8828 201.317 25.5703C201.968 25.2448 202.534 24.8216 203.016 24.3008C203.498 23.7669 203.875 23.1615 204.149 22.4844C204.435 21.7943 204.578 21.0846 204.578 20.3555Z" />
</g>
<defs>
<clipPath id="clip0_53_156">
<rect width="210" height="32" fill="white"/>
</clipPath>
</defs>
</svg>
